<mxfile host="app.diagrams.net" modified="2023-03-18T08:21:14.707Z" agent="5.0 (Windows NT 10.0; Win64; x64) AppleWebKit/537.36 (KHTML, like Gecko) Chrome/111.0.0.0 Safari/537.36" etag="T9ZAXodRsCJu3kscqdo6" version="21.0.2" type="github">
  <diagram name="Страница 1" id="2x9Wfhu7E4FkKwAU8HKC">
    <mxGraphModel dx="1701" dy="484" grid="1" gridSize="10" guides="1" tooltips="1" connect="1" arrows="1" fold="1" page="1" pageScale="1" pageWidth="827" pageHeight="1169" backgroundImage="{&quot;src&quot;:&quot;https://wompampsupport.azureedge.net/fetchimage?siteId=7575&amp;v=2&amp;jpgQuality=100&amp;width=700&amp;url=https%3A%2F%2Fi.kym-cdn.com%2Fentries%2Ficons%2Ffacebook%2F000%2F017%2F133%2Fcover2.jpg&quot;,&quot;width&quot;:&quot;700&quot;,&quot;height&quot;:&quot;394&quot;,&quot;x&quot;:0,&quot;y&quot;:0}" math="0" shadow="0">
      <root>
        <mxCell id="0" />
        <mxCell id="1" parent="0" />
        <mxCell id="yKLj46cAwXF7KZjP4Sd2-1" value="ТОВАР" style="swimlane;fontStyle=1;childLayout=stackLayout;horizontal=1;startSize=26;horizontalStack=0;resizeParent=1;resizeParentMax=0;resizeLast=0;collapsible=1;marginBottom=0;align=center;fontSize=14;labelBackgroundColor=none;fillColor=#FF47E0;fontColor=#FFFFFF;fontFamily=Comic Sans MS;" parent="1" vertex="1">
          <mxGeometry x="-760" y="140" width="160" height="296" as="geometry" />
        </mxCell>
        <mxCell id="yKLj46cAwXF7KZjP4Sd2-2" value="ИН" style="text;strokeColor=none;fillColor=default;spacingLeft=4;spacingRight=4;overflow=hidden;rotatable=0;points=[[0,0.5],[1,0.5]];portConstraint=eastwest;fontSize=12;whiteSpace=wrap;html=1;fontFamily=Comic Sans MS;" parent="yKLj46cAwXF7KZjP4Sd2-1" vertex="1">
          <mxGeometry y="26" width="160" height="30" as="geometry" />
        </mxCell>
        <mxCell id="yKLj46cAwXF7KZjP4Sd2-3" value="ИН_категории" style="text;strokeColor=none;fillColor=default;spacingLeft=4;spacingRight=4;overflow=hidden;rotatable=0;points=[[0,0.5],[1,0.5]];portConstraint=eastwest;fontSize=12;whiteSpace=wrap;html=1;fontFamily=Comic Sans MS;" parent="yKLj46cAwXF7KZjP4Sd2-1" vertex="1">
          <mxGeometry y="56" width="160" height="30" as="geometry" />
        </mxCell>
        <mxCell id="yKLj46cAwXF7KZjP4Sd2-4" value="Количество" style="text;strokeColor=none;fillColor=default;spacingLeft=4;spacingRight=4;overflow=hidden;rotatable=0;points=[[0,0.5],[1,0.5]];portConstraint=eastwest;fontSize=12;whiteSpace=wrap;html=1;fontFamily=Comic Sans MS;" parent="yKLj46cAwXF7KZjP4Sd2-1" vertex="1">
          <mxGeometry y="86" width="160" height="30" as="geometry" />
        </mxCell>
        <mxCell id="yKLj46cAwXF7KZjP4Sd2-5" value="Стоимость" style="text;strokeColor=none;fillColor=default;spacingLeft=4;spacingRight=4;overflow=hidden;rotatable=0;points=[[0,0.5],[1,0.5]];portConstraint=eastwest;fontSize=12;whiteSpace=wrap;html=1;fontFamily=Comic Sans MS;" parent="yKLj46cAwXF7KZjP4Sd2-1" vertex="1">
          <mxGeometry y="116" width="160" height="30" as="geometry" />
        </mxCell>
        <mxCell id="yKLj46cAwXF7KZjP4Sd2-6" value="Артикул" style="text;strokeColor=none;fillColor=default;spacingLeft=4;spacingRight=4;overflow=hidden;rotatable=0;points=[[0,0.5],[1,0.5]];portConstraint=eastwest;fontSize=12;whiteSpace=wrap;html=1;fontFamily=Comic Sans MS;" parent="yKLj46cAwXF7KZjP4Sd2-1" vertex="1">
          <mxGeometry y="146" width="160" height="30" as="geometry" />
        </mxCell>
        <mxCell id="Zob5wcTq5DTHhbtXfYrZ-1" value="Характеристики" style="text;strokeColor=none;fillColor=default;spacingLeft=4;spacingRight=4;overflow=hidden;rotatable=0;points=[[0,0.5],[1,0.5]];portConstraint=eastwest;fontSize=12;whiteSpace=wrap;html=1;fontFamily=Comic Sans MS;" vertex="1" parent="yKLj46cAwXF7KZjP4Sd2-1">
          <mxGeometry y="176" width="160" height="30" as="geometry" />
        </mxCell>
        <mxCell id="yKLj46cAwXF7KZjP4Sd2-8" value="Стелаж" style="text;strokeColor=none;fillColor=default;spacingLeft=4;spacingRight=4;overflow=hidden;rotatable=0;points=[[0,0.5],[1,0.5]];portConstraint=eastwest;fontSize=12;whiteSpace=wrap;html=1;fontFamily=Comic Sans MS;" parent="yKLj46cAwXF7KZjP4Sd2-1" vertex="1">
          <mxGeometry y="206" width="160" height="30" as="geometry" />
        </mxCell>
        <mxCell id="yKLj46cAwXF7KZjP4Sd2-10" value="Полка" style="text;strokeColor=none;fillColor=default;spacingLeft=4;spacingRight=4;overflow=hidden;rotatable=0;points=[[0,0.5],[1,0.5]];portConstraint=eastwest;fontSize=12;whiteSpace=wrap;html=1;fontFamily=Comic Sans MS;" parent="yKLj46cAwXF7KZjP4Sd2-1" vertex="1">
          <mxGeometry y="236" width="160" height="30" as="geometry" />
        </mxCell>
        <mxCell id="yKLj46cAwXF7KZjP4Sd2-9" value="Ряд" style="text;strokeColor=none;fillColor=default;spacingLeft=4;spacingRight=4;overflow=hidden;rotatable=0;points=[[0,0.5],[1,0.5]];portConstraint=eastwest;fontSize=12;whiteSpace=wrap;html=1;fontFamily=Comic Sans MS;" parent="yKLj46cAwXF7KZjP4Sd2-1" vertex="1">
          <mxGeometry y="266" width="160" height="30" as="geometry" />
        </mxCell>
        <mxCell id="yKLj46cAwXF7KZjP4Sd2-15" value="Категории" style="swimlane;fontStyle=1;childLayout=stackLayout;horizontal=1;startSize=26;horizontalStack=0;resizeParent=1;resizeParentMax=0;resizeLast=0;collapsible=1;marginBottom=0;align=center;fontSize=14;labelBackgroundColor=none;fillColor=#FF47E0;fontColor=#FFFFFF;fontFamily=Comic Sans MS;" parent="1" vertex="1">
          <mxGeometry x="-540" y="270" width="160" height="86" as="geometry" />
        </mxCell>
        <mxCell id="yKLj46cAwXF7KZjP4Sd2-16" value="ИН" style="text;strokeColor=none;fillColor=default;spacingLeft=4;spacingRight=4;overflow=hidden;rotatable=0;points=[[0,0.5],[1,0.5]];portConstraint=eastwest;fontSize=12;whiteSpace=wrap;html=1;fontFamily=Comic Sans MS;" parent="yKLj46cAwXF7KZjP4Sd2-15" vertex="1">
          <mxGeometry y="26" width="160" height="30" as="geometry" />
        </mxCell>
        <mxCell id="yKLj46cAwXF7KZjP4Sd2-17" value="Наименование" style="text;strokeColor=none;fillColor=default;spacingLeft=4;spacingRight=4;overflow=hidden;rotatable=0;points=[[0,0.5],[1,0.5]];portConstraint=eastwest;fontSize=12;whiteSpace=wrap;html=1;fontFamily=Comic Sans MS;" parent="yKLj46cAwXF7KZjP4Sd2-15" vertex="1">
          <mxGeometry y="56" width="160" height="30" as="geometry" />
        </mxCell>
        <mxCell id="yKLj46cAwXF7KZjP4Sd2-30" value="TEXT" style="swimlane;fontStyle=1;childLayout=stackLayout;horizontal=1;startSize=26;horizontalStack=0;resizeParent=1;resizeParentMax=0;resizeLast=0;collapsible=1;marginBottom=0;align=center;fontSize=14;labelBackgroundColor=none;fillColor=#FF47E0;fontColor=#FFFFFF;fontFamily=Comic Sans MS;" parent="1" vertex="1">
          <mxGeometry x="-160" y="20" width="160" height="82" as="geometry" />
        </mxCell>
        <mxCell id="yKLj46cAwXF7KZjP4Sd2-31" value="TEXT" style="text;strokeColor=none;fillColor=default;spacingLeft=4;spacingRight=4;overflow=hidden;rotatable=0;points=[[0,0.5],[1,0.5]];portConstraint=eastwest;fontSize=12;whiteSpace=wrap;html=1;fontFamily=Comic Sans MS;" parent="yKLj46cAwXF7KZjP4Sd2-30" vertex="1">
          <mxGeometry y="26" width="160" height="26" as="geometry" />
        </mxCell>
        <mxCell id="yKLj46cAwXF7KZjP4Sd2-32" value="TEXT" style="text;strokeColor=none;fillColor=default;spacingLeft=4;spacingRight=4;overflow=hidden;rotatable=0;points=[[0,0.5],[1,0.5]];portConstraint=eastwest;fontSize=12;whiteSpace=wrap;html=1;fontFamily=Comic Sans MS;" parent="yKLj46cAwXF7KZjP4Sd2-30" vertex="1">
          <mxGeometry y="52" width="160" height="30" as="geometry" />
        </mxCell>
        <mxCell id="yKLj46cAwXF7KZjP4Sd2-45" value="" style="edgeStyle=entityRelationEdgeStyle;fontSize=12;html=1;endArrow=ERmany;rounded=0;" parent="1" source="yKLj46cAwXF7KZjP4Sd2-16" target="yKLj46cAwXF7KZjP4Sd2-3" edge="1">
          <mxGeometry width="100" height="100" relative="1" as="geometry">
            <mxPoint x="440" y="150" as="sourcePoint" />
            <mxPoint x="540" y="50" as="targetPoint" />
          </mxGeometry>
        </mxCell>
        <mxCell id="BYhXG8txiyPygOyY0y3V-1" value="Заказ" style="swimlane;fontStyle=1;childLayout=stackLayout;horizontal=1;startSize=26;horizontalStack=0;resizeParent=1;resizeParentMax=0;resizeLast=0;collapsible=1;marginBottom=0;align=center;fontSize=14;labelBackgroundColor=none;fillColor=#FF47E0;fontColor=#FFFFFF;fontFamily=Comic Sans MS;" parent="1" vertex="1">
          <mxGeometry x="-550" y="30" width="160" height="142" as="geometry" />
        </mxCell>
        <mxCell id="BYhXG8txiyPygOyY0y3V-2" value="ИН" style="text;strokeColor=none;fillColor=default;spacingLeft=4;spacingRight=4;overflow=hidden;rotatable=0;points=[[0,0.5],[1,0.5]];portConstraint=eastwest;fontSize=12;whiteSpace=wrap;html=1;fontFamily=Comic Sans MS;" parent="BYhXG8txiyPygOyY0y3V-1" vertex="1">
          <mxGeometry y="26" width="160" height="26" as="geometry" />
        </mxCell>
        <mxCell id="BYhXG8txiyPygOyY0y3V-3" value="ИН_товара" style="text;strokeColor=none;fillColor=default;spacingLeft=4;spacingRight=4;overflow=hidden;rotatable=0;points=[[0,0.5],[1,0.5]];portConstraint=eastwest;fontSize=12;whiteSpace=wrap;html=1;fontFamily=Comic Sans MS;" parent="BYhXG8txiyPygOyY0y3V-1" vertex="1">
          <mxGeometry y="52" width="160" height="30" as="geometry" />
        </mxCell>
        <mxCell id="BYhXG8txiyPygOyY0y3V-7" value="ИН_покапателя" style="text;strokeColor=none;fillColor=default;spacingLeft=4;spacingRight=4;overflow=hidden;rotatable=0;points=[[0,0.5],[1,0.5]];portConstraint=eastwest;fontSize=12;whiteSpace=wrap;html=1;fontFamily=Comic Sans MS;" parent="BYhXG8txiyPygOyY0y3V-1" vertex="1">
          <mxGeometry y="82" width="160" height="30" as="geometry" />
        </mxCell>
        <mxCell id="BYhXG8txiyPygOyY0y3V-5" value="Дата_заказа" style="text;strokeColor=none;fillColor=default;spacingLeft=4;spacingRight=4;overflow=hidden;rotatable=0;points=[[0,0.5],[1,0.5]];portConstraint=eastwest;fontSize=12;whiteSpace=wrap;html=1;fontFamily=Comic Sans MS;" parent="BYhXG8txiyPygOyY0y3V-1" vertex="1">
          <mxGeometry y="112" width="160" height="30" as="geometry" />
        </mxCell>
        <mxCell id="BYhXG8txiyPygOyY0y3V-4" value="" style="edgeStyle=entityRelationEdgeStyle;fontSize=12;html=1;endArrow=ERmandOne;startArrow=ERmandOne;rounded=0;exitX=1;exitY=0.5;exitDx=0;exitDy=0;" parent="1" source="yKLj46cAwXF7KZjP4Sd2-2" target="BYhXG8txiyPygOyY0y3V-3" edge="1">
          <mxGeometry width="100" height="100" relative="1" as="geometry">
            <mxPoint x="-590" y="201" as="sourcePoint" />
            <mxPoint x="-630" y="227" as="targetPoint" />
          </mxGeometry>
        </mxCell>
        <mxCell id="BYhXG8txiyPygOyY0y3V-8" value="Покупатель" style="swimlane;fontStyle=1;childLayout=stackLayout;horizontal=1;startSize=26;horizontalStack=0;resizeParent=1;resizeParentMax=0;resizeLast=0;collapsible=1;marginBottom=0;align=center;fontSize=14;labelBackgroundColor=none;fillColor=#FF47E0;fontColor=#FFFFFF;fontFamily=Comic Sans MS;" parent="1" vertex="1">
          <mxGeometry x="-340" y="140" width="160" height="112" as="geometry" />
        </mxCell>
        <mxCell id="BYhXG8txiyPygOyY0y3V-9" value="ИН" style="text;strokeColor=none;fillColor=default;spacingLeft=4;spacingRight=4;overflow=hidden;rotatable=0;points=[[0,0.5],[1,0.5]];portConstraint=eastwest;fontSize=12;whiteSpace=wrap;html=1;fontFamily=Comic Sans MS;" parent="BYhXG8txiyPygOyY0y3V-8" vertex="1">
          <mxGeometry y="26" width="160" height="26" as="geometry" />
        </mxCell>
        <mxCell id="BYhXG8txiyPygOyY0y3V-10" value="ФИО" style="text;strokeColor=none;fillColor=default;spacingLeft=4;spacingRight=4;overflow=hidden;rotatable=0;points=[[0,0.5],[1,0.5]];portConstraint=eastwest;fontSize=12;whiteSpace=wrap;html=1;fontFamily=Comic Sans MS;" parent="BYhXG8txiyPygOyY0y3V-8" vertex="1">
          <mxGeometry y="52" width="160" height="30" as="geometry" />
        </mxCell>
        <mxCell id="BYhXG8txiyPygOyY0y3V-11" value="Номер" style="text;strokeColor=none;fillColor=default;spacingLeft=4;spacingRight=4;overflow=hidden;rotatable=0;points=[[0,0.5],[1,0.5]];portConstraint=eastwest;fontSize=12;whiteSpace=wrap;html=1;fontFamily=Comic Sans MS;" parent="BYhXG8txiyPygOyY0y3V-8" vertex="1">
          <mxGeometry y="82" width="160" height="30" as="geometry" />
        </mxCell>
        <mxCell id="BYhXG8txiyPygOyY0y3V-12" value="" style="edgeStyle=entityRelationEdgeStyle;fontSize=12;html=1;endArrow=ERmandOne;startArrow=ERmandOne;rounded=0;" parent="1" source="BYhXG8txiyPygOyY0y3V-9" target="BYhXG8txiyPygOyY0y3V-7" edge="1">
          <mxGeometry width="100" height="100" relative="1" as="geometry">
            <mxPoint x="-230" y="224" as="sourcePoint" />
            <mxPoint x="-190" y="140" as="targetPoint" />
          </mxGeometry>
        </mxCell>
      </root>
    </mxGraphModel>
  </diagram>
</mxfile>
